# 3ds Max Wavefront OBJ Exporter v0.97b - (c)2007 guruware
# File Created: 28.02.2013 18:13:13

mtllib boatHull.mtl

#
# object Box001
#

v  -11.3109 0.0000 13.1536
v  -12.8572 0.0000 -8.4893
v  -11.5715 0.0000 -20.0000
v  -4.5077 -2.1230 -20.0050
v  -2.6924 -2.1230 14.9327
v  -6.7139 0.0000 20.0000
v  -7.7553 10.0000 25.0000
v  6.7139 0.0000 20.0000
v  7.7553 10.0000 25.0000
v  11.3109 0.0000 13.1536
v  13.0653 10.0000 15.0000
v  -13.3664 10.0000 -20.0000
v  4.5077 -2.1230 -20.0050
v  13.3664 10.0000 -20.0000
v  11.5715 0.0000 -20.0000
v  -14.8515 10.0000 -10.0000
v  -13.0653 10.0000 15.0000
v  12.8572 0.0000 -8.4893
v  14.8515 10.0000 -10.0000
v  2.6924 -2.1230 14.9327
v  11.0426 10.0000 12.7647
v  9.7606 2.1631 11.4087
v  4.8713 2.1631 17.3468
v  5.5111 10.0000 21.0190
v  -4.8713 2.1631 17.3468
v  -5.5111 10.0000 21.0190
v  -9.7606 2.1631 11.4087
v  -11.0426 10.0000 12.7647
v  -11.0950 2.1631 -7.3631
v  -12.5524 10.0000 -8.4753
v  -12.5236 10.0000 -8.4660
v  11.3237 10.0000 -17.3694
v  11.2970 10.0000 -17.3468
v  9.9855 2.1631 -17.3468
v  12.5236 10.0000 -8.4660
v  11.0950 2.1631 -7.3631
v  -11.2970 10.0000 -17.3468
v  -11.3237 10.0000 -17.3694
v  -9.9855 2.1631 -17.3468
# 39 vertices

vn -0.1867 -0.9806 0.0593
vn 0.0000 -1.0000 -0.0000
vn -0.1980 -0.9802 0.0021
vn -0.1104 -0.9939 0.0024
vn -0.1108 -0.9927 0.0469
vn -0.2042 -0.9614 0.1846
vn 0.0000 -0.4472 0.8944
vn 0.0000 -0.6327 0.7744
vn 0.7361 -0.3406 0.5850
vn 0.6791 -0.4023 0.6140
vn 0.8893 -0.3031 0.3425
vn 0.8955 -0.2760 0.3491
vn -0.0001 0.0003 -1.0000
vn -0.0006 -0.0001 -1.0000
vn -0.0002 0.0002 -1.0000
vn 0.0003 0.0009 -1.0000
vn 0.0000 0.0000 -1.0000
vn 0.0001 0.0003 -1.0000
vn -0.9527 -0.2552 -0.1650
vn -0.9618 -0.2325 -0.1447
vn -0.9672 -0.2526 -0.0259
vn -0.9617 -0.2674 -0.0602
vn -0.8847 -0.2781 0.3742
vn -0.8783 -0.3050 0.3682
vn -0.7360 -0.3355 0.5880
vn -0.7540 -0.3753 0.5391
vn 0.9651 -0.2615 -0.0151
vn 0.9663 -0.2530 -0.0475
vn 0.9527 -0.2542 -0.1667
vn 0.9541 -0.2306 -0.1908
vn 0.1144 -0.9934 0.0080
vn 0.1129 -0.9926 0.0440
vn 0.1815 -0.9820 0.0530
vn 0.2042 -0.9614 0.1846
vn 0.1909 -0.9816 0.0113
vn 0.0000 -0.9223 0.3864
vn -0.6690 0.3162 -0.6726
vn -0.6456 0.2661 -0.7158
vn -0.6740 0.3276 -0.6621
vn -0.6903 0.3678 -0.6230
vn 0.0000 0.4243 -0.9055
vn 0.6740 0.3276 -0.6621
vn 0.8674 0.2641 -0.4218
vn 0.8604 0.2909 -0.4185
vn 0.6903 0.3678 -0.6230
vn 0.9690 0.2299 -0.0902
vn 0.6607 0.2651 0.7022
vn -0.2333 0.0791 0.9692
vn -0.4893 0.1150 0.8645
vn 0.5289 -0.1192 0.8403
vn -0.9578 0.2369 0.1628
vn -0.9579 0.2406 0.1564
vn -0.9563 0.2549 0.1431
vn 0.0000 1.0000 0.0000
vn -0.0000 1.0000 0.0000
vn 0.0000 1.0000 -0.0000
vn 0.0000 0.0000 1.0000
vn -0.9695 0.2273 -0.0919
vn 0.9583 0.2369 0.1598
# 59 vertex normals

vt 0.8750 0.3906 0.0000
vt 0.7656 0.3906 0.0000
vt 0.7031 0.3906 0.0000
vt 0.7031 0.3438 0.0000
vt 0.8906 0.3281 0.0000
vt 0.9063 0.3594 0.0000
vt 0.9063 0.4531 0.0000
vt 0.8906 0.5469 0.0000
vt 0.8438 0.5469 0.0000
vt 0.8594 0.4531 0.0000
vt 0.6719 0.5625 0.0000
vt 0.6719 0.5469 0.0000
vt 0.6719 0.4531 0.0000
vt 0.7344 0.5469 0.0000
vt 0.7344 0.4531 0.0000
vt 0.7031 0.2813 0.0000
vt 0.8906 0.2969 0.0000
vt 0.8750 0.2344 0.0000
vt 0.9063 0.2656 0.0000
vt 0.7031 0.2344 0.0000
vt 0.7656 0.2188 0.0000
vt 0.3125 0.9844 0.0000
vt 0.3125 0.8906 0.0000
vt 0.4063 0.8906 0.0000
vt 0.4219 0.9844 0.0000
vt 0.5938 0.7969 0.0000
vt 0.5938 0.6719 0.0000
vt 0.4375 0.6719 0.0000
vt 0.4375 0.7969 0.0000
vt 0.1094 0.8906 0.0000
vt 0.1094 0.9844 0.0000
vt 0.0156 0.9844 0.0000
vt 0.0158 0.9843 0.0000
vt 0.0156 0.8906 0.0000
vt 0.7969 0.6250 0.0000
vt 0.8125 0.6250 0.0000
vt 0.8125 0.6094 0.0000
vt 0.7969 0.6094 0.0000
vt 0.3750 0.1719 0.0000
vt 0.3594 0.0469 0.0000
vt 0.1094 0.0469 0.0000
vt 0.0938 0.1719 0.0000
vt 0.1094 0.5313 0.0000
vt 0.3438 0.5313 0.0000
vt 0.2813 0.5938 0.0000
vt 0.1719 0.5938 0.0000
vt 0.0938 0.3281 0.0000
vt 0.3594 0.3281 0.0000
vt 0.3438 0.2344 0.0000
vt 0.1094 0.2344 0.0000
# 50 texture coords

g Box001
usemtl 01___Default
s 2
f 1/1/1 2/2/2 3/3/3 4/4/4 
f 1/1/1 4/4/4 5/5/5 6/6/6 
s 8
f 7/7/7 6/8/8 8/8/8 9/7/7 
s 16
f 9/7/9 8/8/10 10/9/11 11/10/12 
s 32
f 4/11/13 3/12/14 12/13/15 13/11/16 
f 12/13/15 14/13/17 15/12/18 13/11/16 
s 64
f 12/13/19 3/12/20 2/14/21 16/15/22 
f 16/15/22 2/14/21 1/9/23 17/10/24 
f 17/10/24 1/9/23 6/8/25 7/7/26 
s 16
f 11/10/12 10/9/11 18/14/27 19/15/28 
f 19/15/28 18/14/27 15/12/29 14/13/30 
s 2
f 5/5/5 4/4/4 13/16/31 20/17/32 
f 10/18/33 8/19/34 20/17/32 15/20/35 
f 20/17/32 13/16/31 15/20/35 
f 10/18/33 15/20/35 18/21/2 
s 8
f 20/17/36 8/19/8 6/6/8 5/5/36 
s 16
f 21/22/37 22/23/38 23/24/39 24/25/40 
s 8
f 24/26/41 23/27/41 25/28/41 26/29/41 
s 64
f 25/24/42 27/23/43 28/22/44 26/25/45 
f 28/22/44 27/23/43 29/30/46 30/31/47 
f 29/30/46 31/31/48 30/31/47 
s 16
f 32/32/49 33/33/50 34/34/51 35/31/52 
f 34/34/51 36/30/53 35/31/52 
s off
f 24/35/54 26/35/54 7/35/54 9/35/54 
f 11/35/54 21/35/54 24/35/54 9/35/54 
f 17/36/55 7/35/55 26/35/55 28/35/55 
f 16/37/56 17/36/56 28/35/56 31/37/56 
f 37/37/56 12/37/56 16/37/56 30/37/56 
f 14/38/56 12/37/56 38/37/56 32/38/56 
f 32/38/56 35/38/56 19/38/56 14/38/56 
f 19/38/56 35/38/56 21/35/56 11/35/56 
f 37/39/57 39/40/57 34/41/57 33/42/57 
f 22/43/56 27/44/56 25/45/56 23/46/56 
f 27/44/56 22/43/56 36/47/56 29/48/56 
f 39/49/56 29/48/56 36/47/56 34/50/56 
f 21/22/58 35/31/58 36/30/58 22/23/58 
f 37/32/59 31/31/59 29/30/59 39/34/59 
# 33 polygons - 4 triangles

